<svg class="svg-icon" style="width: 1em; height: 1em;vertical-align: middle;fill: currentColor;overflow: hidden;" viewBox="0 0 1024 1024" version="1.1" xmlns="http://www.w3.org/2000/svg"><path d="M616.197531 268.740741l7.901234 7.901234 65.580247 65.679013 8 7.901234 136.987655-26.271605-192.197531-192.296296-26.271605 137.08642zM326.91358 705.08642l-65.679012-65.679013-7.901235-7.901234-136.987654 26.271605 192.197531 192.296296 26.271605-137.08642-7.901235-7.901234z" fill="#DC4E45" /><path d="M689.777778 468.839506a89.382716 89.382716 0 0 0 0-126.518518L624.098765 276.54321a89.580247 89.580247 0 0 0-84.148148-23.703704l142.71605 223.111111zM527.506173 631.111111l9.679012-9.777778L387.160494 386.962963l-62.419753 62.419753 150.024691 234.469136 52.740741-52.740741zM418.17284 726.716049a82.469136 82.469136 0 0 0 12.543209-5.728395L283.259259 490.864198l-22.024691 22.024691a89.580247 89.580247 0 0 0 0 126.518518l65.679012 65.679013a89.481481 89.481481 0 0 0 91.25926 21.629629zM631.407407 527.209877l9.777778-9.777778-150.024691-234.469136-62.518519 62.518518 150.024692 234.469136 52.74074-52.74074z" fill="#FF6B5B" /><path d="M568.987654 589.62963l9.679013-9.679013L428.641975 345.481481l-41.481481 41.481482 150.024691 234.37037 31.802469-31.703703zM672.888889 485.728395l9.876543-9.876543-142.814815-222.91358a89.580247 89.580247 0 0 0-42.469136 23.703703l-6.320987 6.320988 150.024691 234.469136zM453.530864 705.08642l11.45679-11.555556 9.876544-9.876543-150.123457-234.271605-41.481482 41.481482L430.716049 720.987654a88.888889 88.888889 0 0 0 22.814815-15.901234z" fill="#C9FBF2" /><path d="M734.024691 386.567901l7.901235 7.901235L879.012346 368.197531l-44.345679-44.246914-136.987655 26.271605 36.345679 36.345679zM308.54321 850.074074l44.345679 44.246914 26.271605-137.08642-7.901235-7.901235-36.444444-36.345679-26.271605 137.08642z" fill="#B44038" /><path d="M689.777778 342.320988a89.382716 89.382716 0 0 1 0 126.518518l-7.111111 7.111111 34.567901 54.024692 16.790123-16.790124a89.580247 89.580247 0 0 0 0-126.617284l-36.345679-36.345679zM527.506173 631.111111l-52.740741 52.740741 34.567901 54.024691 62.419753-62.419753-34.567901-54.123457-9.679012 9.777778zM418.17284 726.716049a89.481481 89.481481 0 0 1-91.25926-21.629629l7.901235 7.901234 36.444444 36.345679a89.481481 89.481481 0 0 0 91.25926 21.728395l-31.80247-49.382716a82.469136 82.469136 0 0 1-12.543209 5.037037zM631.407407 527.209877l-52.74074 52.74074 34.567901 54.024692 62.518518-62.518519-34.567901-54.024691-9.777778 9.777778z" fill="#DC4E45" /><path d="M568.987654 589.62963l-31.802469 31.703703 34.567901 54.123457 41.481482-41.481481-34.567901-54.024692-9.679013 9.679013zM672.888889 485.728395l-31.703704 31.703704 34.567901 54.024691 41.481482-41.481481-34.567901-54.024692-9.777778 9.777778zM464.987654 693.530864l-11.45679 11.555556A88.888889 88.888889 0 0 1 430.716049 720.987654l31.80247 49.382716a88.098765 88.098765 0 0 0 35.259259-21.728395l11.555555-11.45679-34.567901-54.024691z" fill="#A9ECEB" /></svg>